<svg width="800" height="844" viewBox="0 0 800 844" fill="none" xmlns="http://www.w3.org/2000/svg">
<defs><linearGradient id="aingleGrad" x1="140" y1="60" x2="700" y2="800" gradientUnits="userSpaceOnUse"><stop offset="0" stop-color="#003DA5"/><stop offset="0.42" stop-color="#4D7CC4"/><stop offset="0.62" stop-color="#E87722"/><stop offset="1" stop-color="#F4A54D"/></linearGradient></defs>
<path d="M376.532 0.561532C374.199 0.828137 365.357 1.76126 356.884 2.56107C254.1 12.2922 154.632 62.8139 92.4953 136.797C77.0225 155.193 68.0581 168.123 44.7261 205.714C18.5697 248.105 9.23694 270.1 3.21974 303.692C-4.88506 349.148 2.60574 400.47 22.3765 435.395C30.8497 450.458 50.2521 470.72 62.7777 477.919C90.7761 493.782 133.388 501.913 172.684 498.714C182.508 497.914 190.613 497.514 190.858 497.648C191.104 497.914 190.735 500.314 189.999 503.246C188.034 510.578 188.402 532.44 190.49 540.971C197.244 568.831 221.19 594.959 251.89 607.756C273.011 616.687 283.081 618.686 305.922 618.82C333.183 618.953 337.236 618.02 377.883 602.823C379.479 602.29 380.707 603.89 383.04 609.355C389.794 625.352 399.004 637.349 418.284 655.345C425.406 661.876 433.388 669.875 435.967 672.941C447.019 686.271 462.123 715.331 479.684 757.588C489.753 781.449 489.753 781.449 487.789 785.981C484.964 792.247 485.333 797.445 488.894 802.111C493.315 807.71 499.086 809.576 504.612 807.043C510.875 804.244 513.454 799.312 512.963 790.647C512.84 786.781 507.068 779.583 504.121 779.583C501.419 779.583 502.033 781.982 496.262 746.257C490.613 711.465 487.052 696.802 480.421 681.605C471.456 661.077 463.72 650.146 441.247 626.285C418.284 601.89 412.389 593.359 407.6 577.629C404.407 567.232 404.285 565.765 403.671 524.975C402.934 484.184 402.811 482.984 400.478 482.984C398.022 482.984 398.022 483.917 398.022 526.308C398.022 568.031 398.145 569.898 400.846 578.829C402.443 583.894 404.776 590.293 406.004 592.959C410.056 601.757 421.599 615.887 438.669 633.483C456.229 651.612 464.579 663.076 472.316 679.606C477.105 689.87 483.736 710.932 485.21 720.263C485.701 723.196 487.42 732.127 489.139 739.992C491.964 753.455 492.209 757.854 489.631 754.789C489.017 754.122 487.42 750.123 486.069 745.991C482.263 734.793 466.176 700.668 458.317 687.071C447.633 668.808 440.019 659.21 427.125 648.013C411.653 634.549 403.179 625.218 396.425 613.888C383.409 592.026 381.444 580.295 381.444 525.108C381.444 502.713 380.953 483.517 380.339 482.584C379.725 481.518 378.251 480.985 377.023 481.251C374.813 481.651 374.69 483.784 374.69 530.307C374.69 557.101 374.935 581.495 375.304 584.694C375.918 590.426 375.918 590.426 367.322 593.759C346.2 602.024 331.341 605.223 312.062 605.889C290.94 606.689 280.502 604.956 261.223 597.491C227.698 584.561 204.121 558.567 201.173 531.506C199.945 520.042 201.542 501.513 204.612 492.582C207.805 483.251 218.12 470.054 229.172 460.989C234.084 456.99 239.855 452.058 242.066 450.058C245.381 446.992 246.364 446.726 248.083 448.059C250.048 449.659 249.925 450.192 247.101 456.99C241.083 471.387 234.084 508.045 234.084 525.374C234.084 531.506 233.715 532.973 231.628 533.639C228.067 534.839 223.032 542.037 223.032 545.77C223.032 553.768 228.558 559.5 236.294 559.633C243.539 559.633 248.82 554.168 248.82 546.703C248.82 542.171 249.311 541.238 254.714 537.638C257.907 535.505 262.819 531.64 265.766 529.24C271.047 524.841 271.047 524.841 274.239 527.641C275.959 529.107 279.52 530.707 282.221 531.107C285.291 531.64 286.888 532.706 286.888 534.039C286.888 535.239 288.361 542.571 290.081 550.569C293.273 564.965 293.273 564.965 290.081 569.098C282.958 578.296 288.853 591.626 300.027 591.626C304.694 591.626 308.869 588.293 310.834 583.095C312.43 579.095 313.167 578.696 323.359 576.563C337.973 573.497 358.112 566.565 358.849 564.299C360.322 560.167 357.621 560.167 344.972 564.299C325.079 570.831 311.079 573.897 310.465 571.897C309.606 568.964 305.185 565.099 301.624 564.299C298.677 563.632 298.063 562.433 295.484 551.235C293.887 544.437 291.923 537.238 290.94 535.239C289.958 533.106 289.344 531.24 289.589 531.24C289.835 531.107 291.8 529.507 294.133 527.774C298.185 524.708 298.185 524.708 310.097 530.707C323.728 537.905 340.674 543.37 351.849 544.57C358.971 545.37 359.585 545.237 359.094 542.837C358.726 540.838 356.27 539.771 345.832 537.505C331.219 534.172 323.728 531.373 309.729 524.308C300.764 519.776 300.15 519.243 300.764 515.91C301.133 513.91 300.641 509.911 299.659 506.979C297.94 501.647 297.94 501.647 317.588 480.318C335.517 460.856 340.06 454.324 335.639 454.324C334.78 454.324 325.201 463.922 314.518 475.786C294.993 497.114 294.87 497.248 291.063 495.781C288.975 494.981 285.66 494.315 283.695 494.315C280.257 494.315 280.011 493.782 272.397 472.32C264.661 450.325 264.661 450.325 267.117 446.726C268.713 444.593 269.696 441.394 269.696 438.194C269.696 434.729 270.31 432.996 271.292 432.996C272.152 432.996 281.607 429.93 292.168 426.331C308.378 420.599 311.448 419.132 311.448 416.999C311.448 413.134 308.992 413.533 287.379 421.532C267.977 428.73 267.977 428.73 264.415 425.797C261.837 423.798 259.381 422.998 255.205 423.265C249.679 423.398 249.188 423.131 244.89 416.999C242.311 413.533 235.926 405.269 230.645 398.737C222.172 388.339 221.19 386.606 222.172 383.94C223.646 380.341 216.892 380.208 292.168 384.34C304.694 385.007 306.659 384.873 307.273 383.007C307.764 381.807 307.641 380.341 307.027 379.675C306.413 379.008 291.063 377.808 272.766 377.009C221.804 374.742 225.119 375.142 223.277 371.277C220.821 365.944 214.436 360.746 211.243 361.412C209.647 361.679 208.05 361.545 207.436 361.145C206.331 360.346 201.91 349.415 187.297 312.357C182.631 300.626 178.087 289.429 177.105 287.429C175.508 284.23 175.631 283.697 178.333 280.897C181.28 277.831 181.28 277.831 187.174 283.963C203.138 300.626 235.557 325.287 257.293 337.151C267.977 343.016 295.975 353.947 306.29 356.347C309.36 357.013 310.343 356.747 310.957 355.014C311.448 353.814 311.448 352.614 311.079 352.214C310.711 351.814 300.764 347.949 288.853 343.683C256.188 331.819 236.417 319.555 202.401 290.228C193.805 282.897 186.192 276.365 185.332 275.832C184.227 275.165 184.227 273.699 185.578 269.3C186.806 265.701 187.174 261.568 186.683 258.369C186.069 254.103 186.192 253.037 187.788 253.037C189.999 253.037 221.927 239.707 228.803 235.841C233.593 233.308 233.593 233.308 237.399 235.841C242.434 239.307 249.065 238.107 252.504 233.441C255.819 228.909 255.697 221.044 252.381 216.512C250.171 213.579 250.048 212.38 251.153 209.314C252.872 204.381 280.379 106.937 282.467 98.1391C284.063 91.0741 284.186 91.0741 288.853 91.0741C292.905 91.0741 293.765 91.6073 294.01 94.1401C294.256 95.7397 297.449 106.537 301.255 118.135C304.939 129.599 314.518 159.458 322.5 184.386C343.499 249.704 355.287 285.696 356.884 288.895C358.48 292.361 361.796 292.628 361.796 289.295C361.796 287.962 355.165 266.501 346.937 241.573C338.832 216.779 326.921 180.12 320.658 160.392C304.448 109.736 299.291 94.1401 297.694 92.0072C296.589 90.6742 296.957 89.4745 299.413 86.9417C302.483 83.4758 302.483 83.4758 322.623 99.7388C333.675 108.803 343.99 116.668 345.463 117.468C347.919 118.668 348.165 119.468 347.551 123.733C346.937 127.999 347.305 129.332 350.375 133.064C353.568 136.93 354.796 137.463 359.954 137.33C364.989 137.33 366.339 137.863 368.427 140.796C369.901 142.796 376.655 151.327 383.531 159.992C396.18 175.588 396.18 175.588 394.215 180.387C392.864 183.986 392.741 186.252 393.724 190.118C394.952 195.184 398.39 200.249 401.215 201.315C402.32 201.715 402.074 205.315 400.109 215.712C398.513 224.777 397.531 235.574 397.408 246.372C397.039 276.765 397.285 281.031 399.25 281.964C400.355 282.364 401.46 282.364 401.829 281.964C402.197 281.564 402.688 269.966 402.934 256.103C403.179 242.373 403.916 226.776 404.653 221.711C407.355 202.648 406.986 203.715 410.67 203.715C412.512 203.715 415.582 202.515 417.547 201.182C421.231 198.516 421.231 198.516 427.003 204.115C430.073 207.181 439.897 215.446 448.615 222.377C464.457 235.041 464.457 235.041 464.457 240.506C464.334 243.972 465.071 247.038 466.421 248.638C468.386 250.904 468.018 252.104 458.808 271.699C448.861 292.761 447.142 298.893 451.194 298.093C452.545 297.827 456.72 290.228 463.106 276.098C470.842 258.902 473.421 254.37 475.386 254.37C479.193 254.37 485.701 249.438 486.438 245.972C487.175 243.039 488.157 242.773 507.068 240.506C517.997 239.173 528.19 237.574 529.786 236.907C531.383 236.241 534.453 235.708 536.663 235.708C539.733 235.708 540.961 236.507 542.066 239.04C542.926 240.906 543.54 243.306 543.54 244.372C543.54 245.305 528.067 262.501 509.156 282.497C490.245 302.492 474.895 319.555 475.14 320.355C476.491 324.754 481.771 320.088 513.822 285.829C548.083 249.038 548.083 249.038 554.101 251.837C559.504 254.503 560.486 254.637 566.135 253.037C572.152 251.304 572.398 251.437 574.485 254.503C575.591 256.236 583.327 267.834 591.677 280.231C600.028 292.495 607.273 303.425 607.887 304.359C608.747 305.558 606.782 308.758 601.01 315.423C596.712 320.621 589.099 331.152 584.187 338.884C565.398 368.344 555.943 373.409 513.454 377.142C494.788 378.741 489.631 380.341 492.823 383.807C493.929 385.007 498.595 385.007 512.226 383.807C557.293 379.675 568.714 374.076 586.765 346.349C595.853 332.619 611.203 311.69 612.308 311.69C612.799 311.69 616.237 316.489 620.167 322.354C627.167 333.019 627.167 333.019 625.079 337.284C622.869 341.95 622.5 350.215 624.465 354.08C625.57 356.347 622.623 359.946 601.133 383.14C576.573 409.668 576.573 409.668 570.679 409.268C565.521 408.868 564.17 409.268 560.609 412.734C556.434 416.733 556.434 416.733 548.452 415C523.401 409.268 493.929 403.669 492.455 404.202C490.245 405.135 490.245 408.468 492.455 409.401C494.788 410.468 547.101 420.865 552.013 421.265C555.697 421.665 556.434 422.331 558.153 427.397C559.504 431.396 559.627 433.396 558.767 434.062C556.679 435.395 547.224 451.791 547.224 453.924C547.224 454.857 548.206 455.657 549.557 455.657C551.031 455.657 553.855 452.191 557.785 445.659C563.556 436.195 564.047 435.795 568.591 435.662C572.275 435.662 574.117 434.729 577.555 430.996C581.976 426.197 581.976 426.197 618.325 426.197C654.674 426.197 654.674 426.197 656.393 430.33C657.375 432.462 658.603 434.329 659.217 434.329C660.814 434.329 660.323 438.594 658.481 440.861C657.498 442.06 651.358 452.591 644.85 464.322C633.061 485.517 633.061 485.517 623.974 485.65C615.746 485.65 614.641 486.05 609.975 490.049C604.817 494.582 604.817 494.582 591.677 488.183C584.432 484.717 566.626 475.786 552.136 468.321C493.315 437.928 482.017 432.596 480.666 434.062C477.719 437.261 478.579 437.795 537.523 467.788C581.731 490.183 598.431 498.314 600.765 498.314C601.87 498.314 602.238 500.447 602.115 505.779C601.87 513.377 601.87 513.377 596.958 514.977C594.256 515.91 585.783 519.109 578.047 522.175C552.013 532.44 525.488 538.838 487.052 544.037C469.983 546.436 465.562 547.369 465.562 548.969C465.562 552.035 473.667 552.168 495.893 548.969C535.067 543.637 572.275 533.239 594.502 521.642C604.694 516.443 604.94 516.31 604.94 518.709C604.94 519.642 600.887 523.508 596.098 527.374C591.186 531.107 579.643 540.438 570.433 547.903C561.223 555.501 545.136 568.431 534.453 576.696C515.296 591.759 515.296 591.759 511.612 588.693C505.349 583.761 493.806 585.227 487.911 591.759C485.824 594.159 485.455 594.025 477.596 587.227C464.088 575.896 455.738 566.698 451.931 559.233C448.37 552.302 448.37 552.302 447.756 511.644C447.142 472.053 447.019 470.987 444.686 470.987C442.353 470.987 442.23 472.053 441.861 510.578C441.616 547.369 441.739 550.569 444.072 557.234C448.124 568.964 458.931 581.228 475.631 593.226C483.245 598.691 483.245 598.691 482.508 605.09C481.28 616.42 490.122 627.618 500.314 627.618C503.507 627.618 504.244 628.551 508.296 637.882C519.348 664.009 522.418 674.54 532.365 721.996C537.154 744.524 541.943 766.652 542.926 771.318C544.645 779.45 544.645 779.849 542.066 783.715C533.839 795.712 545.136 811.975 557.293 805.71C562.205 803.177 564.416 798.912 564.416 791.98C564.416 788.114 563.433 786.248 559.504 782.116C556.802 779.316 554.592 775.984 554.592 774.651C554.592 770.785 538.873 696.002 537.523 693.069C536.786 691.603 536.172 690.137 536.172 689.737C536.172 688.137 539.856 689.07 543.908 691.603C556.679 699.734 577.924 704.4 597.94 703.2C614.518 702.267 625.816 699.068 642.394 690.403C657.498 682.538 671.006 671.608 685.005 655.878C707.355 630.684 718.039 605.623 720.126 573.763C720.986 560.433 720.986 560.433 729.827 558.167C754.387 551.635 774.527 531.64 787.912 500.447C797.736 477.919 800.806 456.057 799.823 416.333C799.087 384.74 796.631 364.745 789.631 334.352C784.351 311.424 781.158 301.559 773.667 286.363C770.597 280.097 765.562 267.567 762.492 258.369C747.879 214.912 735.231 189.052 712.513 156.392C681.567 111.869 633.307 70.1456 582.345 43.6183C536.417 19.7571 485.701 5.49373 431.178 1.09474C415.337 -0.104982 386.601 -0.371588 376.532 0.561532ZM442.967 16.4246C531.997 25.7558 611.817 64.5469 671.743 127.732C709.811 167.856 733.143 208.247 751.195 264.901C753.896 273.299 757.58 283.03 759.545 286.363C770.106 305.025 779.316 338.084 784.842 377.009C787.543 395.938 788.649 439.528 786.807 455.924C782.631 494.315 763.475 528.041 738.178 541.371C730.073 545.77 722.951 547.503 713.986 547.636C707.478 547.636 704.776 546.436 679.479 533.106C664.375 525.108 650.007 517.91 647.551 516.843C643.253 515.243 643.131 514.977 643.499 509.112C643.745 505.779 644.727 502.58 645.709 502.047C646.569 501.513 664.621 494.448 685.619 486.317C706.741 478.185 727.985 469.787 732.897 467.521C745.423 461.789 745.423 461.789 747.879 464.855C750.089 467.388 749.844 467.788 741.248 482.184C732.406 496.848 732.406 496.848 727.126 496.048C722.214 495.381 721.354 495.781 718.039 499.38C708.092 510.178 718.653 526.708 731.178 520.042C737.564 516.71 739.774 511.778 737.809 505.779C736.336 501.38 736.459 500.847 742.967 490.049C746.528 484.051 750.458 476.719 751.44 474.053C753.159 469.521 753.773 469.121 756.966 469.787C764.948 471.52 773.176 463.655 773.176 454.324C773.176 446.326 766.79 438.328 760.282 438.328C758.808 438.328 758.44 436.728 758.44 430.596C758.44 420.199 755.37 393.805 751.563 370.61C748.37 351.548 748.37 351.548 752.791 346.882C762.738 336.484 758.071 319.022 744.686 317.156C740.388 316.489 739.406 315.689 738.423 312.357C735.476 302.092 721.231 261.435 719.635 258.769C717.302 254.77 717.425 253.97 720.986 248.238C724.424 242.639 724.793 238.507 722.337 233.308C716.442 220.911 702.811 220.778 697.04 233.042C695.321 236.774 692.865 239.307 688.689 241.573C676.287 248.505 635.026 281.297 620.044 296.227C616.36 299.826 612.922 302.226 612.431 301.559C609.729 298.093 576.696 247.838 576.696 247.172C576.696 246.638 577.801 244.506 579.275 242.506C580.748 240.373 582.222 236.641 582.713 234.241C583.204 231.708 584.309 229.842 585.046 229.976C586.643 230.375 612.431 227.976 618.202 226.91C622.132 226.243 623.605 223.31 620.535 221.977C619.676 221.577 611.448 222.111 602.361 223.177C593.397 224.11 585.169 225.043 584.432 225.043C583.573 225.043 581.731 222.777 580.38 219.978C579.029 217.312 577.31 214.113 576.573 212.913C575.468 211.313 575.713 210.113 577.924 207.447C581.117 203.315 614.395 151.06 615.009 148.927C615.255 148.128 617.343 147.994 620.29 148.394C625.202 149.327 625.202 149.327 628.64 180.12C630.851 201.182 631.587 211.18 630.728 211.446C625.939 213.179 622.623 222.244 624.833 227.043C629.5 236.774 637.85 238.774 644.481 231.708C647.797 227.976 648.165 226.91 647.551 221.977C646.815 216.379 642.271 210.38 638.71 210.38C637.605 210.38 636.868 207.714 636.254 201.315C634.657 184.253 630.973 153.726 630.114 151.46C629.623 149.994 630.237 148.528 632.324 147.061C635.394 144.928 635.517 144.928 644.481 155.326C662.779 176.255 677.392 194.517 677.392 196.117C677.392 196.65 675.673 197.983 673.585 199.183C671.497 200.249 670.269 201.715 670.761 202.382C672.725 204.381 693.479 213.446 694.215 212.646C694.584 212.246 693.97 207.714 692.987 202.782C691.882 197.85 690.654 191.718 690.286 189.452C689.181 183.186 687.83 183.053 684.76 188.785C682.181 193.317 681.935 193.584 680.585 191.184C677.76 185.986 664.252 169.323 651.849 155.726C639.078 141.729 639.078 141.729 640.552 136.93C645.587 120.534 629.5 105.604 616.237 114.402C612.185 117.068 612.185 117.068 608.255 114.002C585.537 95.6064 517.138 63.2138 487.052 56.5487C480.421 54.9491 480.298 54.9491 479.315 49.3503C477.351 38.4195 467.649 32.2876 457.58 35.6202C450.826 37.753 447.142 43.7516 447.019 52.8162C446.896 59.748 446.896 59.748 440.265 64.2802C427.985 72.4117 401.829 90.5409 384.637 102.938C375.304 109.603 367.076 114.802 366.217 114.535C362.287 112.936 356.27 112.936 353.691 114.535C351.112 116.002 350.375 115.868 347.919 113.336C346.446 111.869 336.376 103.605 325.57 95.0732C308.009 81.0764 305.922 79.0769 306.29 75.8776C306.904 69.7457 307.273 69.4791 318.447 68.4126C336.867 66.813 403.916 59.8813 408.828 58.9481C413.495 58.1483 413.495 58.1483 412.758 62.9472C412.144 65.8799 412.389 67.7461 413.126 67.7461C415.337 67.7461 435.476 54.1492 434.862 53.0828C434.125 51.8831 414.109 42.4186 412.144 42.4186C411.284 42.4186 411.039 43.3517 411.407 44.5514C413.495 50.5501 413.617 53.0828 411.653 53.0828C409.811 53.0828 312.799 63.4804 308.992 64.1469C308.009 64.2802 306.536 62.9472 305.799 61.081C304.939 59.2147 302.606 56.0155 300.519 53.8826C295.484 48.5505 284.677 47.4841 278.66 51.6165C273.748 54.9491 269.696 63.3471 269.696 70.2789C269.696 75.0778 269.45 75.611 265.766 76.4108C251.521 79.7434 198.226 107.337 176.982 122.4C163.474 131.998 147.51 145.195 144.808 149.061C143.58 150.66 142.966 150.794 140.879 149.327C137.563 147.195 128.721 147.328 125.037 149.594C118.038 153.726 115.336 164.924 119.389 173.322C121.231 177.188 121.231 177.454 117.669 180.92C111.529 186.785 83.8993 222.911 82.7941 226.376C82.5485 227.31 81.0749 227.31 78.2505 226.243C69.2861 222.777 60.3217 233.042 63.3917 243.173C64.1285 245.705 65.3565 247.705 65.9705 247.705C68.0581 247.705 67.0757 251.704 63.7601 257.436C59.7077 264.501 50.8661 285.963 47.9189 295.96C46.3225 301.826 45.2173 303.692 43.3753 303.692C36.1301 303.692 29.0077 311.557 29.0077 319.688C29.0077 331.419 41.4105 340.484 49.5153 334.752C51.7257 333.152 52.9537 332.885 53.1993 333.952C53.4449 334.752 64.6197 346.482 77.8821 359.946C92.6181 374.742 101.951 385.14 101.583 386.34C101.337 387.406 100.846 392.072 100.355 396.604C99.6177 404.869 99.6177 404.869 86.9693 414.333C79.9697 419.665 74.0753 423.664 73.9525 423.398C62.2865 407.002 55.6553 387.539 50.9889 357.013C48.4101 339.817 48.0417 338.351 46.1997 338.351C43.8665 338.351 43.7437 343.949 45.5857 357.68C49.2697 384.473 57.3745 407.935 68.6721 424.464C77.7593 437.795 93.7233 448.059 114.722 454.058C121.353 455.924 122.336 456.724 122.336 459.39C122.336 461.123 123.932 464.322 125.897 466.455C133.142 474.32 145.668 470.32 147.633 459.656C148.369 455.924 148.738 455.657 153.895 455.657C161.509 455.657 233.224 443.927 239.119 441.794C242.066 440.727 244.276 440.461 244.645 441.26C245.504 442.86 245.627 442.727 238.996 446.326C228.803 451.925 213.085 466.988 203.138 480.585C201.419 482.984 199.209 483.517 187.788 484.451C150.948 487.65 114.968 484.584 90.4077 476.319C53.0765 463.522 29.0077 434.329 17.7101 388.339C13.9033 372.743 13.7805 371.543 13.7805 343.683C13.6577 320.755 14.1489 312.757 15.8681 303.692C18.9381 288.229 24.3413 270.9 30.8497 256.37C36.3757 243.839 65.6021 195.45 81.1977 173.055C120.494 116.668 171.21 76.1442 238.75 47.0842C276.818 30.8213 317.097 20.8235 366.708 15.3581C378.988 14.0251 426.02 14.6916 442.967 16.4246ZM508.542 69.2124C536.295 78.8102 571.293 96.1396 595.361 111.869C601.993 116.268 607.887 119.734 608.624 119.734C610.22 119.734 610.097 120.534 608.501 126.799C607.519 131.065 606.782 131.865 604.817 131.332C603.466 130.932 586.52 133.064 567.117 135.997C538.628 140.263 531.874 140.929 531.383 139.463C531.137 138.53 529.172 136.13 527.207 133.998C524.383 131.198 522.418 130.398 517.875 130.398C512.103 130.398 512.103 130.398 502.402 113.336C496.999 104.004 488.648 89.6078 483.736 81.343C478.824 73.0782 475.14 65.48 475.509 64.6802C478.579 58.8148 479.561 58.4149 486.192 61.081C489.753 62.414 499.823 66.1465 508.542 69.2124ZM451.808 65.6133C454.51 67.8794 454.387 69.2124 451.563 74.6779C448.861 79.6101 418.775 152.793 415.214 162.658C413.126 168.79 412.758 169.056 408.337 169.056C405.758 169.056 403.302 169.723 402.934 170.523C401.337 173.189 398.759 170.789 385.373 153.46C377.76 143.862 371.129 135.731 370.515 135.464C369.778 135.197 369.655 131.598 370.023 126.799C370.76 118.668 370.76 118.668 397.285 100.539C411.898 90.6742 429.336 78.4103 436.09 73.3448C442.844 68.146 448.615 64.0136 448.984 63.8803C449.352 63.8803 450.58 64.6802 451.808 65.6133ZM472.439 72.0118C473.667 74.5446 503.507 126.266 507.314 132.398C508.051 133.731 507.805 135.064 506.209 136.93C504.981 138.397 503.753 141.996 503.384 144.928C502.77 149.461 502.279 150.394 499.946 150.394C496.876 150.394 467.527 161.058 440.633 171.989C431.546 175.588 424.055 178.387 424.055 178.121C423.933 177.854 422.459 176.121 420.863 174.122C417.915 170.523 417.915 170.523 423.564 156.792C449.721 92.807 457.58 73.0782 457.58 71.8785C457.58 71.212 459.913 70.2789 462.86 70.0123C465.685 69.7457 468.632 69.4791 469.491 69.3457C470.351 69.2124 471.702 70.4122 472.439 72.0118ZM272.152 81.4763C272.152 82.4094 268.222 87.6082 263.433 93.0736C249.434 109.203 225.733 137.997 224.014 140.929C222.663 143.329 221.681 143.595 216.032 142.796C209.892 142.129 209.401 142.262 205.226 146.795C202.893 149.327 200.928 152.393 200.928 153.326C200.928 154.926 198.103 155.459 187.788 156.259C180.42 156.659 169 157.992 162.246 159.058C150.825 160.925 149.843 160.925 148.492 158.792C147.633 157.592 146.896 155.859 146.896 155.193C146.896 153.326 162.737 139.73 176.982 129.465C194.542 116.802 218.12 103.338 243.294 91.7406C256.188 85.8753 267.485 80.5432 268.468 79.8767C270.555 78.5436 272.152 79.2102 272.152 81.4763ZM279.029 88.1414C279.397 89.2079 278.169 94.6733 276.45 100.539C272.643 113.069 249.925 193.184 246.978 203.982C245.136 210.913 244.645 211.713 241.697 211.713C238.627 211.713 237.891 210.38 232.242 196.916C224.997 179.321 222.172 173.988 220.699 175.055C218.857 176.255 221.681 184.786 230.523 204.248C234.452 212.646 235.066 215.179 233.838 216.645C233.101 217.712 232.119 220.911 231.751 223.844C231.014 229.042 231.014 229.042 208.05 239.04C195.402 244.506 184.841 249.038 184.595 249.038C184.227 249.038 182.385 247.305 180.297 245.305C176.736 241.706 176.736 241.44 178.701 238.507C179.806 236.907 187.297 221.311 195.402 203.848C209.892 172.122 209.892 172.122 214.681 172.255C218.365 172.255 220.085 171.456 223.277 167.99C227.33 163.724 228.067 159.325 226.593 149.594C226.225 147.461 231.259 140.663 246.364 122.534C257.539 109.203 268.591 95.6064 270.924 92.2738C275.222 86.2752 277.801 84.9422 279.029 88.1414ZM609.729 139.196C612.308 143.995 612.308 143.995 592.905 174.122C582.222 190.785 573.012 205.448 572.643 206.914C571.907 208.78 571.047 209.18 568.345 208.247C564.17 206.914 558.399 206.781 555.206 207.981C553.118 208.78 551.399 206.381 542.557 189.318C537.031 178.521 531.26 167.457 529.786 164.791C527.207 159.992 527.207 159.725 529.295 157.192C530.523 155.726 531.874 152.527 532.365 150.127C533.102 145.995 533.347 145.862 539.856 145.462C552.136 144.662 604.326 136.264 607.027 134.531C607.027 134.397 608.378 136.53 609.729 139.196ZM506.823 157.326C510.015 161.725 510.015 161.725 507.068 165.99C505.349 168.39 498.349 183.32 491.35 199.316C480.298 225.043 478.456 228.376 475.877 228.509C474.281 228.509 471.702 229.042 470.105 229.576C467.281 230.642 457.703 223.71 435.721 204.781C430.809 200.649 426.143 196.65 425.161 196.117C423.81 195.317 423.687 193.851 424.792 189.052C426.02 183.053 426.02 183.053 435.967 179.587C459.422 171.189 500.069 155.459 501.174 154.26C502.77 152.527 503.139 152.66 506.823 157.326ZM201.542 162.391C201.91 163.857 203.261 165.99 204.243 167.19C206.085 169.19 206.085 169.589 204.243 172.789C201.419 177.721 175.263 232.508 173.912 236.374C172.929 239.173 172.193 239.44 166.421 239.173C160.035 238.774 160.035 238.774 150.334 210.247C140.633 181.72 140.633 181.72 143.826 178.921C145.545 177.454 147.755 173.855 148.738 171.056C150.211 166.257 150.703 165.857 155.001 165.457C163.228 164.924 196.63 160.791 197.121 160.258C198.472 158.925 200.805 159.992 201.542 162.391ZM524.506 164.791C525.365 167.19 545.136 205.448 547.592 209.314C548.697 211.18 548.329 212.246 545.627 215.179C542.68 218.245 539.856 225.577 539.856 229.976C539.856 231.575 538.873 231.708 511.121 234.375C502.402 235.308 493.806 236.507 491.841 237.041C488.771 237.974 488.034 237.707 485.824 234.375C483.245 230.509 483.245 230.509 497.49 198.916C505.226 181.587 511.612 166.257 511.612 164.924C511.612 162.924 512.594 162.524 517.629 162.658C522.173 162.658 523.892 163.191 524.506 164.791ZM135.598 183.186C136.335 183.453 137.072 184.519 137.072 185.719C137.072 188.385 152.913 235.974 154.509 238.107C155.615 239.44 154.878 240.773 151.562 243.706C149.106 245.839 146.773 249.171 146.405 251.171C145.668 253.97 145.054 254.503 142.843 253.703C135.967 251.437 96.6705 241.04 92.1269 240.24C87.7061 239.573 87.0921 239.04 85.9869 234.375C84.7589 229.576 84.8817 229.176 89.6709 223.977C92.4953 220.911 101.337 209.847 109.442 199.316C125.406 178.521 123.441 179.72 135.598 183.186ZM698.022 246.772C699.373 250.371 699.496 252.237 698.636 252.77C697.408 253.57 651.481 322.754 648.534 328.353C647.429 330.219 646.815 330.353 643.867 328.886C641.289 327.687 639.447 327.553 635.885 328.753C632.693 329.819 631.219 329.953 630.851 328.886C630.605 328.086 627.167 322.888 623.237 317.156C616.115 307.025 616.115 307.025 620.044 303.292C624.465 298.893 645.709 281.83 670.024 262.901C689.672 247.572 692.005 245.439 693.601 241.04C694.461 238.64 695.075 238.24 695.443 239.707C695.689 240.773 696.917 243.972 698.022 246.772ZM114.354 251.704C127.248 255.303 139.037 258.369 140.756 258.636C143.335 258.902 143.949 259.835 144.194 263.968C144.563 268.1 144.194 268.9 141.738 269.7C136.581 271.433 81.4433 297.56 68.6721 304.359C56.0237 311.157 56.0237 311.157 53.1993 307.958C50.2521 304.758 50.2521 304.758 54.7957 292.628C57.3745 285.829 62.2865 273.966 65.8477 265.967C71.9877 252.104 72.2333 251.704 76.2857 251.704C79.3557 251.704 81.0749 250.771 83.2853 247.705C85.2501 244.905 86.8465 243.972 88.5657 244.506C89.9165 244.905 101.583 248.105 114.354 251.704ZM704.776 256.37C704.653 257.836 698.636 286.629 691.514 320.355C684.391 354.08 677.515 386.473 676.409 392.338C675.304 398.204 673.953 403.402 673.339 403.802C672.725 404.202 670.883 404.602 669.164 404.469C666.831 404.336 665.726 403.402 665.112 401.003C664.621 399.137 660.814 389.406 656.516 379.141C649.762 363.278 649.025 360.479 650.621 359.146C655.411 355.28 657.13 341.683 653.446 336.085C651.727 333.419 652.463 331.952 667.813 308.758C691.391 273.299 700.724 258.236 700.724 255.303C700.724 253.703 701.461 253.037 702.934 253.304C704.162 253.57 704.899 254.903 704.776 256.37ZM713.618 255.97C714.969 260.635 733.143 312.623 734.125 314.623C734.985 316.489 734.248 318.089 731.055 321.555C721.723 331.552 725.407 346.216 738.423 351.014C742.599 352.481 743.213 353.414 744.563 359.013C746.528 367.411 752.177 410.734 753.282 425.931C754.265 438.194 754.265 438.194 749.107 442.86C745.791 445.926 743.581 446.992 742.844 446.193C742.107 445.393 729.459 440.461 714.723 435.262C688.075 425.664 687.953 425.664 687.584 421.665C687.461 419.399 687.093 416.733 686.97 415.666C686.725 414.333 691.268 409.268 698.268 403.003C704.653 397.137 712.267 389.806 715.091 386.606C720.372 380.741 720.74 380.741 722.091 386.606C723.687 393.938 726.021 390.605 728.845 376.609C730.319 369.144 731.915 361.945 732.161 360.612C732.529 359.279 732.161 358.346 731.055 358.346C728.599 358.346 708.951 370.743 708.337 372.743C708.092 373.676 709.443 374.742 711.653 375.142C713.741 375.675 715.46 376.475 715.46 377.009C715.46 377.675 710.302 383.007 704.162 389.006C697.899 395.138 690.654 402.069 688.198 404.602C684.269 408.468 683.163 408.868 680.953 407.668C679.234 406.602 678.743 405.402 679.234 403.936C681.199 398.337 709.32 263.035 709.32 259.036C709.32 254.637 712.513 252.37 713.618 255.97ZM146.282 306.758C141.861 319.422 137.809 330.619 137.195 331.686C136.703 332.752 134.37 334.085 132.037 334.485C129.827 335.018 126.879 336.751 125.774 338.484C123.564 341.417 123.564 341.417 115.213 338.617C108.705 336.484 90.4077 330.886 58.8481 321.555C57.9885 321.288 57.2517 319.955 57.2517 318.622C57.2517 317.022 59.2165 315.289 63.1461 313.423C99.8633 295.827 138.423 277.031 141.37 275.432C144.931 273.299 145.054 273.432 149.72 278.498C154.387 283.83 154.387 283.83 146.282 306.758ZM172.438 288.362C173.298 293.428 187.911 330.219 199.7 357.28C202.524 363.812 202.401 367.144 199.209 368.477C198.226 368.877 187.911 365.544 176.245 361.145C156.351 353.414 149.352 351.681 149.352 354.08C149.352 354.614 150.825 356.08 152.79 357.28C156.474 359.679 192.7 373.009 195.402 373.009C196.753 373.009 197.244 374.476 197.244 377.808C197.244 381.541 198.226 383.674 201.542 387.273C205.594 391.672 206.331 391.938 211.857 391.272C217.751 390.472 217.751 390.472 228.067 403.936C233.715 411.401 240.224 419.665 242.557 422.465C247.101 428.197 247.223 432.996 242.68 430.33C241.329 429.53 223.769 424.198 203.629 418.466C183.613 412.6 159.667 405.669 150.457 402.869C133.633 397.937 133.633 397.937 132.897 393.005C131.177 381.008 119.02 373.676 109.565 379.008C105.758 381.141 108.951 384.074 63.1461 337.284C56.3921 330.619 54.9185 327.953 56.7605 325.954C57.2517 325.42 59.0937 325.954 60.8129 327.02C62.5321 328.22 77.2681 333.152 93.3549 338.084C122.827 347.015 122.827 347.015 123.809 351.281C125.897 360.079 136.089 362.612 143.212 356.08C146.773 352.881 147.141 351.948 146.527 346.749C146.282 343.55 144.931 339.684 143.826 338.351C141.738 335.818 141.861 334.885 149.352 313.423C153.65 301.026 157.579 289.829 158.071 288.229C158.807 285.829 159.913 285.43 165.561 285.563C170.965 285.696 172.07 286.229 172.438 288.362ZM639.078 363.412C642.517 363.678 645.464 364.478 645.464 365.278C645.464 365.944 649.025 375.542 653.446 386.606C660.568 404.469 661.182 407.002 659.586 408.868C658.603 410.068 657.13 413 656.147 415.4C654.551 419.799 654.551 419.799 617.957 420.065C581.485 420.332 581.485 420.332 580.748 417.133C580.134 414.467 583.327 410.468 604.449 387.673C621.027 369.81 629.5 361.545 630.728 362.079C631.71 362.479 635.517 363.145 639.078 363.412ZM172.07 415.533C212.594 427.53 237.522 434.329 240.961 434.329C246.732 434.329 243.785 436.728 236.908 437.528C224.505 439.128 152.545 450.458 150.457 451.125C149.229 451.525 146.65 449.792 144.071 446.992C141.493 444.193 138.545 442.327 136.703 442.327C133.879 442.327 133.265 441.394 131.546 434.595C130.441 430.463 128.599 423.664 127.493 419.665C125.283 412.334 125.283 412.334 128.967 407.668C132.528 402.869 132.528 402.869 138.791 405.135C142.229 406.468 157.211 411.001 172.07 415.533ZM108.459 411.667C111.038 413.134 114.968 414.333 117.178 414.333C119.389 414.333 121.353 415.133 121.599 415.933C128.967 444.726 128.721 443.793 125.897 447.126C124.301 448.859 122.213 450.325 121.231 450.325C120.125 450.192 113.863 448.192 107.231 445.793C94.8285 441.26 78.9873 430.996 79.6013 428.063C79.9697 426.464 101.091 409.268 103.056 409.134C103.547 409.001 106.003 410.201 108.459 411.667ZM712.144 440.194C725.775 444.993 738.301 448.992 740.02 449.259C744.563 449.792 746.16 458.323 741.739 458.323C740.757 458.323 734.125 460.723 726.88 463.789C706.373 472.32 646.323 495.781 643.622 496.448C642.025 496.848 640.429 495.915 638.955 493.648C636.745 490.316 636.745 490.316 648.534 469.654C654.919 458.323 661.182 446.992 662.287 444.326C664.252 439.794 664.498 439.661 671.497 439.661C677.883 439.661 679.111 439.261 682.058 435.795C683.9 433.662 685.865 431.929 686.356 431.796C686.97 431.796 698.636 435.528 712.144 440.194ZM265.889 469.787C269.205 479.385 272.766 489.249 273.871 491.782C275.836 496.048 275.836 496.181 272.889 498.847C268.468 502.98 266.994 507.112 267.485 514.31C267.854 520.842 267.854 520.842 257.047 528.84C246.364 536.839 246.364 536.839 242.68 534.572C239.61 532.706 238.996 531.506 238.996 526.974C239.119 514.044 244.645 481.518 250.785 458.723C252.627 451.925 252.872 451.525 256.433 451.925C259.872 452.325 260.363 452.991 265.889 469.787ZM650.621 524.841C655.533 527.641 670.147 535.372 682.918 541.771C695.812 548.303 706.618 554.168 707.109 554.968C709.074 557.9 708.092 581.762 705.636 592.426C696.18 633.35 661.673 671.341 620.904 685.604C605.677 690.936 584.064 691.736 568.714 687.604C562.574 686.004 553.609 682.672 548.697 680.139C538.382 675.073 523.892 664.276 523.892 661.876C523.892 660.943 520.576 652.812 516.524 643.881C512.471 635.083 509.156 627.484 509.156 627.218C509.156 626.818 510.629 625.618 512.349 624.285C515.541 622.019 515.664 622.152 520.085 626.551C535.803 642.681 559.995 656.811 580.38 661.743C588.362 663.743 589.221 664.276 590.818 668.542C595.116 679.739 610.834 677.873 613.045 665.742C613.659 662.143 614.641 661.21 619.676 659.21C626.061 656.811 641.289 646.147 647.183 640.148C650.499 636.682 650.744 636.682 654.06 638.815C661.059 643.214 669.533 640.281 673.094 632.15C676.901 623.352 672.725 614.554 663.147 610.955C658.849 609.355 658.481 608.689 653.937 595.492C651.358 588.027 649.516 581.362 649.885 580.695C650.253 580.162 651.727 579.629 653.323 579.629C657.253 579.629 685.988 570.964 693.356 567.498C696.794 565.899 699.496 563.766 699.496 562.699C699.496 560.033 697.408 560.433 674.322 567.498C644.727 576.429 648.288 577.629 641.411 556.034C638.096 545.903 634.535 535.639 633.552 533.239C631.587 528.84 631.587 528.84 636.377 524.308C639.078 521.775 641.289 519.776 641.411 519.642C641.534 519.642 645.587 521.909 650.621 524.841ZM622.132 530.307C627.658 530.307 627.658 530.307 634.78 553.101C638.71 565.632 641.78 576.163 641.534 576.296C640.552 577.496 578.047 590.56 556.434 594.292C542.926 596.558 529.541 598.958 526.593 599.757C523.646 600.424 520.699 600.691 520.085 600.291C518.12 598.958 518.857 595.758 521.559 594.159C529.295 589.76 604.94 528.174 606.782 524.841C607.273 524.175 609.606 525.108 612.062 526.974C615.255 529.374 618.202 530.307 622.132 530.307ZM649.271 597.625C653.814 611.888 653.814 612.288 651.604 614.287C650.253 615.354 648.779 617.753 648.165 619.486C647.06 622.685 646.815 622.819 634.289 622.419C609.852 621.886 576.327 618.153 543.171 612.288C533.102 610.422 524.383 609.089 523.523 609.355C522.787 609.489 521.927 608.555 521.681 607.222C521.313 605.489 522.05 604.956 525.243 604.956C535.926 604.956 638.096 585.361 640.429 582.828C642.639 580.429 645.095 584.561 649.271 597.625ZM545.382 618.82C580.134 624.818 623.36 629.484 639.324 628.817C646.446 628.551 647.306 628.817 647.674 631.084C647.92 632.95 645.095 635.616 636.622 641.748C630.359 646.28 622.377 651.479 619.062 653.345C612.922 656.678 612.922 656.678 609.483 653.478C604.326 648.68 597.203 649.079 592.66 654.278C589.221 658.277 589.221 658.277 578.415 654.945C564.17 650.412 547.469 641.481 533.225 630.417C526.839 625.618 520.699 620.953 519.717 620.286C517.875 619.086 517.875 618.686 519.594 615.887C521.067 613.754 522.173 613.221 523.646 614.154C524.751 614.821 534.575 616.82 545.382 618.82Z" fill="url(#aingleGrad)"/>
<path d="M648.042 507.511C645.955 508.978 647.06 509.644 654.674 511.377C672.111 515.643 705.513 517.642 708.214 514.71C710.302 512.444 707.846 512.044 681.076 509.644C668.55 508.578 656.393 507.378 654.06 506.978C651.726 506.712 649.025 506.845 648.042 507.511Z" fill="url(#aingleGrad)"/>
<path d="M251.276 241.972C251.399 245.038 254.591 249.837 255.819 248.638C256.925 247.305 254.714 240.773 252.872 239.973C251.89 239.706 251.276 240.506 251.276 241.972Z" fill="url(#aingleGrad)"/>
<path d="M257.416 254.103C257.416 254.769 259.381 262.101 261.837 270.233C266.38 285.696 268.099 287.695 270.31 279.964C270.924 277.564 271.906 275.698 272.52 275.698C273.134 275.698 278.415 280.497 284.186 286.229C301.378 303.292 323.728 322.221 325.693 321.421C329.377 319.954 327.657 317.688 312.062 303.958C305.308 298.093 295.115 288.762 289.344 283.163C283.695 277.564 278.537 273.032 278.046 273.032C275.345 273.032 277.555 269.433 281.116 268.366C283.204 267.567 284.923 266.367 284.8 265.7C284.677 264.9 279.52 262.101 273.38 259.435C259.135 253.17 257.416 252.637 257.416 254.103Z" fill="url(#aingleGrad)"/>
<path d="M558.399 260.102C557.785 261.835 556.679 269.166 555.82 276.498C550.908 322.221 543.171 332.885 504.858 347.015C494.42 350.881 489.999 353.014 489.753 354.747C489.139 358.346 495.034 357.546 509.401 352.214C540.593 340.483 552.013 328.486 558.399 300.626C561.346 287.562 563.065 259.302 560.855 257.836C560.118 257.302 559.013 258.236 558.399 260.102Z" fill="url(#aingleGrad)"/>
<path d="M380.83 301.825C354.182 309.023 331.219 333.684 324.342 362.344C321.026 375.808 321.517 395.004 325.447 408.467C334.411 438.994 358.849 462.055 388.198 467.387C398.881 469.387 400.846 469.387 411.407 467.387C454.633 459.522 484.105 415.399 476.737 369.676C471.947 339.283 453.159 315.022 425.897 303.958C415.459 299.692 392.496 298.626 380.83 301.825Z" fill="url(#aingleGrad)"/>
<path d="M523.892 484.184C507.559 500.847 492.087 511.511 473.544 519.109C462.86 523.375 460.036 525.508 462.123 527.774C464.948 530.84 491.841 518.576 506.945 507.512C521.067 497.114 537.4 479.785 537.4 475.253C537.4 472.187 532.488 475.519 523.892 484.184Z" fill="url(#aingleGrad)"/>
<path d="M418.775 484.316C418.406 486.183 418.284 502.846 418.652 521.375C419.266 558.166 420.126 563.765 427.248 579.628C429.827 585.227 434.248 591.758 440.019 598.157C444.931 603.622 448.984 608.821 448.984 609.754C448.984 610.687 455.738 618.819 464.088 627.884C479.929 645.08 490.613 660.809 496.016 675.073C499.946 685.07 503.875 700.267 510.261 729.993C515.296 753.188 515.296 753.188 512.84 756.521C508.05 763.186 510.629 773.85 517.506 776.116C519.471 776.916 520.33 779.849 522.541 795.312C525.611 817.04 525.734 819.04 523.278 820.106C522.172 820.506 520.453 823.039 519.471 825.705C515.91 834.769 521.19 843.567 530.032 843.567C535.68 843.567 539.364 840.768 541.084 835.036C542.926 828.904 540.224 821.839 535.066 818.906C532.979 817.84 531.26 816.64 531.26 816.507C531.26 816.374 529.909 807.576 528.312 796.911C525.365 777.583 525.365 777.583 528.926 773.184C534.698 766.118 532.979 757.187 525.12 753.055C521.19 751.055 520.944 750.389 518.243 736.259C507.314 678.272 499.086 657.877 476.122 631.616C469.368 623.884 468.754 622.551 469.86 619.885C470.474 618.152 471.088 616.553 471.088 616.286C471.088 616.02 466.544 612.42 460.895 608.421C445.3 597.357 435.23 584.294 429.09 567.631C426.511 560.832 426.266 557.633 425.652 520.975C425.038 481.65 425.038 481.65 422.336 481.25C420.248 480.851 419.389 481.65 418.775 484.316Z" fill="url(#aingleGrad)"/>
</svg>
